# xmcd
#
# Track frame offsets:
#	150
#	9962
#	21581
#	35863
#	49557
#	61724
#	74073
#	85474
#	97214
#	108475
#	117473
#	128744
#	139512
#	151719
#	164308
#	176303
#
# Disc length: 2483 seconds
#
# Revision: 2
# Processed by: cddbd v1.5.2PL0 Copyright (c) Steve Scherf et al.
# Submitted via: EasyCDDAExtractor 12.0.5.1
#
DISCID=d709b110
DTITLE=Various Artist - Golden Age of Country - Hillbilly Heaven
DYEAR=2009
DGENRE=Country
TTITLE0=Merle Haggard and the Strangers - Mama Tried
TTITLE1=George Jones - She Thinks I Still Care
TTITLE2=Tex Ritter - I Dreamed Of A Hill-Billy Heaven
TTITLE3=Willie Nelson - Funny How Time Slips Away
TTITLE4=Glen Campbell - Galveston
TTITLE5=The Louvin Brothers - My Baby's Gone
TTITLE6=Ferlin Husky and Jean Shepard - A Dear John Letter
TTITLE7=Tennessee Ernie Ford - Shotgun Boogie
TTITLE8=Hank Thompson and His Brazos Valley Boys - Squaws Along The Yukon
TTITLE9=Faron Young - Alone With You
TTITLE10=Tommy Collins - You Better Not Do That
TTITLE11=Ferlin Husky - Gone
TTITLE12=Del Reeves - Girl On The Billboard
TTITLE13=Walter Brennan with the Johnny Mann Singers - Old Rivers
TTITLE14=Wanda Jackson - Right Or Wrong
TTITLE15=Sonny James - You're the Only World I Know
EXTD=
EXTT0=
EXTT1=
EXTT2=
EXTT3=
EXTT4=
EXTT5=
EXTT6=
EXTT7=
EXTT8=
EXTT9=
EXTT10=
EXTT11=
EXTT12=
EXTT13=
EXTT14=
EXTT15=
PLAYORDER=
